<mxfile host="app.diagrams.net" agent="Mozilla/5.0 (Windows NT 10.0; Win64; x64) AppleWebKit/537.36 (KHTML, like Gecko) Chrome/132.0.0.0 Safari/537.36" version="26.0.14">
  <diagram name="‫עמוד-1‬" id="hyvZve8t6bv8eFB8NkO2">
    <mxGraphModel dx="1050" dy="530" grid="1" gridSize="10" guides="1" tooltips="1" connect="1" arrows="1" fold="1" page="1" pageScale="1" pageWidth="827" pageHeight="1169" math="0" shadow="0">
      <root>
        <mxCell id="0" />
        <mxCell id="1" parent="0" />
        <mxCell id="3gFK6-2FTQnyCM7ovKps-1" value="" style="rounded=0;whiteSpace=wrap;html=1;fillColor=none;dashed=1;dashPattern=8 8;" parent="1" vertex="1">
          <mxGeometry x="100" y="74" width="160" height="460" as="geometry" />
        </mxCell>
        <mxCell id="3gFK6-2FTQnyCM7ovKps-4" value="&lt;font style=&quot;font-size: 19px;&quot;&gt;&lt;b&gt;Source&lt;/b&gt;&lt;/font&gt;" style="text;html=1;align=center;verticalAlign=middle;whiteSpace=wrap;rounded=0;sketch=1;curveFitting=1;jiggle=2;" parent="1" vertex="1">
          <mxGeometry x="115" y="44" width="130" height="30" as="geometry" />
        </mxCell>
        <mxCell id="3gFK6-2FTQnyCM7ovKps-5" value="" style="aspect=fixed;sketch=0;html=1;dashed=0;whitespace=wrap;verticalLabelPosition=bottom;verticalAlign=top;fillColor=#2875E2;strokeColor=#ffffff;points=[[0.005,0.63,0],[0.1,0.2,0],[0.9,0.2,0],[0.5,0,0],[0.995,0.63,0],[0.72,0.99,0],[0.5,1,0],[0.28,0.99,0]];shape=mxgraph.kubernetes.icon2;kubernetesLabel=1;prIcon=api" parent="1" vertex="1">
          <mxGeometry x="149.05" y="110" width="50" height="48" as="geometry" />
        </mxCell>
        <mxCell id="3gFK6-2FTQnyCM7ovKps-6" value="" style="aspect=fixed;sketch=0;html=1;dashed=0;whitespace=wrap;verticalLabelPosition=bottom;verticalAlign=top;fillColor=#2875E2;strokeColor=#ffffff;points=[[0.005,0.63,0],[0.1,0.2,0],[0.9,0.2,0],[0.5,0,0],[0.995,0.63,0],[0.72,0.99,0],[0.5,1,0],[0.28,0.99,0]];shape=mxgraph.kubernetes.icon2;prIcon=api" parent="1" vertex="1">
          <mxGeometry x="149.05" y="270" width="50" height="48" as="geometry" />
        </mxCell>
        <mxCell id="3gFK6-2FTQnyCM7ovKps-7" value="" style="image;aspect=fixed;html=1;points=[];align=center;fontSize=12;image=img/lib/azure2/general/File.svg;" parent="1" vertex="1">
          <mxGeometry x="199.05" y="152.32" width="11.91" height="14.68" as="geometry" />
        </mxCell>
        <mxCell id="3gFK6-2FTQnyCM7ovKps-9" value="" style="image;aspect=fixed;html=1;points=[];align=center;fontSize=12;image=img/lib/azure2/general/File.svg;" parent="1" vertex="1">
          <mxGeometry x="189.05" y="300" width="21.91" height="27" as="geometry" />
        </mxCell>
        <mxCell id="3gFK6-2FTQnyCM7ovKps-11" value="" style="verticalLabelPosition=bottom;shadow=0;dashed=0;align=center;html=1;verticalAlign=top;strokeWidth=1;shape=mxgraph.mockup.markup.line;strokeColor=#999999;" parent="1" vertex="1">
          <mxGeometry x="100" y="390" width="160" height="20" as="geometry" />
        </mxCell>
        <mxCell id="3gFK6-2FTQnyCM7ovKps-12" value="&lt;span style=&quot;font-size: 10px;&quot;&gt;&lt;b&gt;Object type:&lt;/b&gt; Jeson format&lt;/span&gt;" style="text;html=1;align=center;verticalAlign=middle;whiteSpace=wrap;rounded=0;" parent="1" vertex="1">
          <mxGeometry x="100" y="420" width="160" height="30" as="geometry" />
        </mxCell>
        <mxCell id="3gFK6-2FTQnyCM7ovKps-13" value="&lt;span style=&quot;font-size: 10px;&quot;&gt;&lt;b&gt;interface:&lt;/b&gt; Api&lt;/span&gt;" style="text;html=1;align=center;verticalAlign=middle;whiteSpace=wrap;rounded=0;" parent="1" vertex="1">
          <mxGeometry x="100" y="460" width="160" height="30" as="geometry" />
        </mxCell>
        <mxCell id="3gFK6-2FTQnyCM7ovKps-15" value="" style="rounded=0;whiteSpace=wrap;html=1;dashed=1;dashPattern=8 8;" parent="1" vertex="1">
          <mxGeometry x="380" y="80" width="160" height="460" as="geometry" />
        </mxCell>
        <mxCell id="3gFK6-2FTQnyCM7ovKps-17" value="&lt;b&gt;Silver Layer&lt;/b&gt;" style="rounded=0;whiteSpace=wrap;html=1;fillColor=#f5f5f5;fontColor=#333333;strokeColor=#666666;" parent="1" vertex="1">
          <mxGeometry x="380" y="44" width="160" height="20" as="geometry" />
        </mxCell>
        <mxCell id="3gFK6-2FTQnyCM7ovKps-19" value="" style="shape=datastore;whiteSpace=wrap;html=1;fillColor=#f5f5f5;fontColor=#333333;strokeColor=#666666;" parent="1" vertex="1">
          <mxGeometry x="440" y="89" width="30" height="40" as="geometry" />
        </mxCell>
        <mxCell id="3gFK6-2FTQnyCM7ovKps-24" value="" style="rounded=0;whiteSpace=wrap;html=1;dashed=1;dashPattern=8 8;" parent="1" vertex="1">
          <mxGeometry x="770" y="74" width="160" height="466" as="geometry" />
        </mxCell>
        <mxCell id="3gFK6-2FTQnyCM7ovKps-31" value="&lt;b&gt;Gold Layer&lt;/b&gt;" style="rounded=0;whiteSpace=wrap;html=1;fillColor=#fff2cc;strokeColor=#d6b656;" parent="1" vertex="1">
          <mxGeometry x="770" y="44" width="160" height="20" as="geometry" />
        </mxCell>
        <mxCell id="3gFK6-2FTQnyCM7ovKps-32" value="" style="rounded=0;whiteSpace=wrap;html=1;dashed=1;dashPattern=8 8;" parent="1" vertex="1">
          <mxGeometry x="1180" y="73" width="160" height="472" as="geometry" />
        </mxCell>
        <mxCell id="3gFK6-2FTQnyCM7ovKps-38" value="&lt;b&gt;Gold&lt;/b&gt;&lt;b style=&quot;background-color: transparent; color: light-dark(rgb(0, 0, 0), rgb(255, 255, 255));&quot;&gt;&amp;nbsp;&lt;/b&gt;&lt;b style=&quot;background-color: transparent; color: light-dark(rgb(0, 0, 0), rgb(255, 255, 255));&quot;&gt;Layer&lt;/b&gt;" style="rounded=0;whiteSpace=wrap;html=1;fillColor=#dae8fc;strokeColor=#6c8ebf;" parent="1" vertex="1">
          <mxGeometry x="1180" y="43" width="160" height="20" as="geometry" />
        </mxCell>
        <mxCell id="EHOHm5FdajeaBpQyl73n-1" value="" style="endArrow=classic;html=1;rounded=0;" edge="1" parent="1">
          <mxGeometry width="50" height="50" relative="1" as="geometry">
            <mxPoint x="250" y="180" as="sourcePoint" />
            <mxPoint x="380" y="180" as="targetPoint" />
            <Array as="points" />
          </mxGeometry>
        </mxCell>
        <mxCell id="EHOHm5FdajeaBpQyl73n-2" value="" style="endArrow=classic;html=1;rounded=0;exitX=0.982;exitY=0.218;exitDx=0;exitDy=0;exitPerimeter=0;" edge="1" parent="1" source="3gFK6-2FTQnyCM7ovKps-15">
          <mxGeometry width="50" height="50" relative="1" as="geometry">
            <mxPoint x="540" y="243.5" as="sourcePoint" />
            <mxPoint x="650" y="220" as="targetPoint" />
            <Array as="points">
              <mxPoint x="650" y="180" />
            </Array>
          </mxGeometry>
        </mxCell>
        <mxCell id="EHOHm5FdajeaBpQyl73n-4" value="" style="shape=datastore;whiteSpace=wrap;html=1;fillColor=#fff2cc;strokeColor=#d6b656;" vertex="1" parent="1">
          <mxGeometry x="827" y="89" width="30" height="40" as="geometry" />
        </mxCell>
        <mxCell id="EHOHm5FdajeaBpQyl73n-5" value="" style="shape=datastore;whiteSpace=wrap;html=1;fillColor=#dae8fc;strokeColor=#6c8ebf;" vertex="1" parent="1">
          <mxGeometry x="1250" y="89" width="30" height="40" as="geometry" />
        </mxCell>
        <mxCell id="EHOHm5FdajeaBpQyl73n-6" value="Store_Products_Info" style="rounded=0;whiteSpace=wrap;html=1;fillColor=#f5f5f5;fontColor=#333333;strokeColor=#666666;" vertex="1" parent="1">
          <mxGeometry x="387.5" y="167" width="142.5" height="23" as="geometry" />
        </mxCell>
        <mxCell id="EHOHm5FdajeaBpQyl73n-7" value="Store_Cart_Sales" style="rounded=0;whiteSpace=wrap;html=1;fillColor=#f5f5f5;fontColor=#333333;strokeColor=#666666;" vertex="1" parent="1">
          <mxGeometry x="387.5" y="210" width="142.5" height="23" as="geometry" />
        </mxCell>
        <mxCell id="EHOHm5FdajeaBpQyl73n-8" value="Store_Users_info" style="rounded=0;whiteSpace=wrap;html=1;fillColor=#f5f5f5;fontColor=#333333;strokeColor=#666666;" vertex="1" parent="1">
          <mxGeometry x="387.5" y="260" width="142.5" height="23" as="geometry" />
        </mxCell>
        <mxCell id="EHOHm5FdajeaBpQyl73n-14" value="Fake Store Api" style="text;html=1;align=center;verticalAlign=middle;whiteSpace=wrap;rounded=0;" vertex="1" parent="1">
          <mxGeometry x="144" y="160" width="60" height="30" as="geometry" />
        </mxCell>
        <mxCell id="EHOHm5FdajeaBpQyl73n-15" value="Geocoding Api" style="text;html=1;align=center;verticalAlign=middle;whiteSpace=wrap;rounded=0;" vertex="1" parent="1">
          <mxGeometry x="149" y="333" width="60" height="30" as="geometry" />
        </mxCell>
        <mxCell id="EHOHm5FdajeaBpQyl73n-18" value="" style="endArrow=classic;html=1;rounded=0;entryX=-0.017;entryY=0.305;entryDx=0;entryDy=0;entryPerimeter=0;" edge="1" parent="1" target="3gFK6-2FTQnyCM7ovKps-15">
          <mxGeometry width="50" height="50" relative="1" as="geometry">
            <mxPoint x="310" y="180" as="sourcePoint" />
            <mxPoint x="350" y="230" as="targetPoint" />
            <Array as="points">
              <mxPoint x="310" y="220" />
            </Array>
          </mxGeometry>
        </mxCell>
        <mxCell id="EHOHm5FdajeaBpQyl73n-19" value="" style="endArrow=classic;html=1;rounded=0;entryX=-0.003;entryY=0.418;entryDx=0;entryDy=0;entryPerimeter=0;" edge="1" parent="1" target="3gFK6-2FTQnyCM7ovKps-15">
          <mxGeometry width="50" height="50" relative="1" as="geometry">
            <mxPoint x="310" y="220" as="sourcePoint" />
            <mxPoint x="310" y="300" as="targetPoint" />
            <Array as="points">
              <mxPoint x="310" y="272" />
            </Array>
          </mxGeometry>
        </mxCell>
        <mxCell id="EHOHm5FdajeaBpQyl73n-20" value="" style="endArrow=classic;html=1;rounded=0;exitX=0.977;exitY=0.539;exitDx=0;exitDy=0;exitPerimeter=0;" edge="1" parent="1" source="3gFK6-2FTQnyCM7ovKps-1">
          <mxGeometry width="50" height="50" relative="1" as="geometry">
            <mxPoint x="310" y="269" as="sourcePoint" />
            <mxPoint x="350" y="270" as="targetPoint" />
            <Array as="points">
              <mxPoint x="310" y="320" />
              <mxPoint x="350" y="320" />
            </Array>
          </mxGeometry>
        </mxCell>
        <mxCell id="EHOHm5FdajeaBpQyl73n-21" value="&lt;h1 style=&quot;margin-top: 0px;&quot;&gt;Data Flow&lt;/h1&gt;" style="text;html=1;whiteSpace=wrap;overflow=hidden;rounded=0;" vertex="1" parent="1">
          <mxGeometry width="180" height="40" as="geometry" />
        </mxCell>
        <mxCell id="EHOHm5FdajeaBpQyl73n-22" value="Store_Sales_Data" style="rounded=0;whiteSpace=wrap;html=1;fillColor=#fff2cc;strokeColor=#d6b656;" vertex="1" parent="1">
          <mxGeometry x="787.5" y="220" width="132.5" height="23" as="geometry" />
        </mxCell>
        <mxCell id="EHOHm5FdajeaBpQyl73n-23" value="" style="endArrow=classic;html=1;rounded=0;entryX=-0.01;entryY=0.321;entryDx=0;entryDy=0;entryPerimeter=0;" edge="1" parent="1" target="3gFK6-2FTQnyCM7ovKps-24">
          <mxGeometry width="50" height="50" relative="1" as="geometry">
            <mxPoint x="540" y="221" as="sourcePoint" />
            <mxPoint x="650" y="250" as="targetPoint" />
            <Array as="points" />
          </mxGeometry>
        </mxCell>
        <mxCell id="EHOHm5FdajeaBpQyl73n-24" value="" style="endArrow=classic;html=1;rounded=0;exitX=0.982;exitY=0.218;exitDx=0;exitDy=0;exitPerimeter=0;" edge="1" parent="1">
          <mxGeometry width="50" height="50" relative="1" as="geometry">
            <mxPoint x="540" y="270" as="sourcePoint" />
            <mxPoint x="653" y="230" as="targetPoint" />
            <Array as="points">
              <mxPoint x="653" y="270" />
            </Array>
          </mxGeometry>
        </mxCell>
        <mxCell id="EHOHm5FdajeaBpQyl73n-25" value="&lt;span style=&quot;font-size: 10px;&quot;&gt;&lt;b&gt;Object type:&lt;/b&gt; View&lt;/span&gt;" style="text;html=1;align=center;verticalAlign=middle;whiteSpace=wrap;rounded=0;" vertex="1" parent="1">
          <mxGeometry x="770" y="430" width="160" height="30" as="geometry" />
        </mxCell>
        <mxCell id="EHOHm5FdajeaBpQyl73n-26" value="&lt;span style=&quot;font-size: 10px;&quot;&gt;&lt;b&gt;Goals: Reports&lt;/b&gt;&lt;/span&gt;" style="text;html=1;align=center;verticalAlign=middle;whiteSpace=wrap;rounded=0;" vertex="1" parent="1">
          <mxGeometry x="778.75" y="480" width="160" height="30" as="geometry" />
        </mxCell>
      </root>
    </mxGraphModel>
  </diagram>
</mxfile>
